<?xml version="1.0" encoding="UTF-8"?>
<svg version="1.1" xmlns="http://www.w3.org/2000/svg" width="1821" height="422">
<path d="M0 0 C7.37627157 5.29923609 14.22000021 11.09462304 20.921875 17.21875 C23.26870412 19.3518902 25.65753336 21.42772698 28.0546875 23.50390625 C31.57608567 26.62303574 34.66208553 29.92974887 37.6953125 33.51953125 C39.30160384 35.36601569 40.98036364 37.05673648 42.7421875 38.75390625 C46.4762026 42.4297073 49.72318107 46.43930161 53.00390625 50.51953125 C55.28991978 53.34587525 57.63529091 56.11160478 59.9921875 58.87890625 C76.76619323 78.98170692 91.73140007 100.75518846 106.3671875 122.44140625 C107.02581787 123.4169043 107.02581787 123.4169043 107.69775391 124.41210938 C118.02978918 139.74689758 128.01845431 155.30976648 137.9921875 170.87890625 C138.67941895 171.95124512 139.36665039 173.02358398 140.07470703 174.12841797 C140.72036621 175.13791504 141.36602539 176.14741211 142.03125 177.1875 C142.60311035 178.08138428 143.1749707 178.97526855 143.76416016 179.89624023 C144.86442918 181.64316448 145.92491924 183.415588 146.95068359 185.20727539 C148.17240189 187.5589807 148.17240189 187.5589807 150.3671875 188.44140625 C150.61919922 187.73741699 150.87121094 187.03342773 151.13085938 186.30810547 C152.50698314 183.11725925 154.2070456 180.45640364 156.1484375 177.57421875 C156.7028804 176.74673126 156.7028804 176.74673126 157.26852417 175.90252686 C158.46372132 174.12084669 159.66533181 172.34359997 160.8671875 170.56640625 C161.69525583 169.33508833 162.52289089 168.10347892 163.35009766 166.87158203 C164.96874406 164.46189037 166.58952909 162.05366027 168.21191406 159.64648438 C170.35548508 156.45880876 172.47973632 153.25923075 174.5949707 150.05273438 C224.77797324 74.10008189 224.77797324 74.10008189 254.3671875 67.44140625 C262.48377917 66.27839538 268.84934643 68.18788637 275.4609375 72.94921875 C283.26368781 79.40149304 288.89670764 87.45745673 293.1796875 96.56640625 C293.80580933 97.8956311 293.80580933 97.8956311 294.44458008 99.25170898 C306.67495468 126.24453686 314.87044301 157.10153454 318.3671875 186.44140625 C318.46 187.17488281 318.5528125 187.90835938 318.6484375 188.6640625 C323.53276925 231.15774869 315.37585264 282.32758412 290.6328125 317.9375 C285.96339201 323.77427561 279.75989992 327.95686562 272.3671875 329.44140625 C261.00948561 330.3500224 251.38975778 325.2819375 242.84130859 318.17236328 C239.23890196 315.04244048 235.79603346 311.75948892 232.3671875 308.44140625 C231.635 307.74917969 230.9028125 307.05695313 230.1484375 306.34375 C224.73108498 301.10912564 220.01167361 295.36139302 215.3671875 289.44140625 C214.89152344 288.83683594 214.41585938 288.23226563 213.92578125 287.609375 C191.53264188 259.03091836 172.18498855 228.18333572 152.72973633 197.5690918 C151.62745665 195.84782904 150.50097163 194.14208244 149.3671875 192.44140625 C144.51274046 199.24516835 139.94443313 206.1822758 135.4921875 213.25390625 C128.38758971 224.44338923 121.03980023 235.46074252 113.6171875 246.44140625 C113.09819885 247.21038239 112.57921021 247.97935852 112.04449463 248.77163696 C102.38824674 263.06973181 92.56417968 277.25518522 82.3046875 291.12890625 C81.72162842 291.91797363 81.13856934 292.70704102 80.5378418 293.52001953 C69.85380301 307.92005542 58.60130075 321.79433303 46.53125 335.05859375 C45.09792085 336.63680815 43.6758197 338.2252991 42.265625 339.82421875 C32.72277734 350.61631192 22.70574168 360.5374065 11.3671875 369.44140625 C10.57054687 370.10527344 9.77390625 370.76914062 8.953125 371.453125 C-13.41708483 389.99781035 -42.89906512 404.91333299 -72.6328125 402.44140625 C-86.72360304 400.55523744 -100.29769961 392.9892415 -110.6328125 383.44140625 C-111.56222656 382.60351562 -112.49164063 381.765625 -113.44921875 380.90234375 C-159.16118498 338.32762076 -178.14435692 261.68004798 -180.76049805 201.50442505 C-180.98933454 194.04644261 -181.02126699 186.58989401 -181.0078125 179.12890625 C-181.00699677 177.41903534 -181.00699677 177.41903534 -181.00616455 175.67462158 C-180.96593493 157.27938624 -180.11447514 139.53863292 -176.6328125 121.44140625 C-176.41850586 120.31250977 -176.20419922 119.18361328 -175.98339844 118.02050781 C-166.22582797 68.35205961 -142.54713909 23.97497318 -100.6328125 -5.55859375 C-67.66222185 -27.67015544 -31.22501204 -21.89866028 0 0 Z " fill="#FFFFFF" transform="translate(180.6328125,19.55859375)"/>
<path d="M0 0 C19.14 0 38.28 0 58 0 C58.33 50.82 58.66 101.64 59 154 C63.63129496 149.36870504 67.92794905 144.98364017 72.15234375 140.06640625 C74.18910592 137.78850522 76.32474075 135.64581412 78.5 133.5 C81.28621141 130.7514401 83.95308392 127.97140209 86.5 125 C89.75164628 121.20641267 93.25713094 117.72607353 96.8125 114.21875 C98.79720342 112.20569368 100.66096916 110.14553597 102.5 108 C105.74804695 104.21061189 109.24922482 100.73378672 112.80078125 97.23046875 C115.39769769 94.59665119 117.81579344 91.84638452 120.19921875 89.01953125 C120.79347656 88.35308594 121.38773438 87.68664062 122 87 C122.6902124 85.98043213 123.3804248 84.96086426 124.09155273 83.91040039 C128.42252814 79.64205107 133.93905122 80.27890546 139.65731812 80.32022095 C141.21687073 80.35085553 142.77641048 80.38215142 144.3359375 80.4140625 C145.94160371 80.42526255 147.54729052 80.43379892 149.15298462 80.43978882 C153.36538984 80.46262418 157.57654038 80.52149936 161.78845215 80.5880127 C166.09186838 80.649551 170.39548871 80.67682831 174.69921875 80.70703125 C183.13338628 80.77124987 191.56653677 80.87356256 200 81 C197.69556365 84.49904507 195.47387323 87.77596582 192.57421875 90.8046875 C191.94193359 91.47113281 191.30964844 92.13757813 190.65820312 92.82421875 C189.68270508 93.83935547 189.68270508 93.83935547 188.6875 94.875 C184.23088692 99.54297616 179.86036941 104.25293844 175.63208008 109.12939453 C173.30284107 111.79904737 170.90431588 114.39768163 168.5 117 C165.46031004 120.29952777 162.43841941 123.60951607 159.5 127 C156.0932265 130.9308925 152.56997215 134.75196573 149.046875 138.578125 C145.93991433 141.95822507 142.89447496 145.38104858 139.8984375 148.859375 C138.34693479 150.60880604 136.76957743 152.31641117 135.1640625 154.015625 C134.66326172 154.54929688 134.16246094 155.08296875 133.64648438 155.6328125 C132.65125537 156.69064256 131.6501555 157.74298744 130.64257812 158.7890625 C127.24724814 162.38618541 127.24724814 162.38618541 126 167 C126.97287851 169.41184548 126.97287851 169.41184548 128.5859375 171.875 C129.17850342 172.84606689 129.77106934 173.81713379 130.3815918 174.81762695 C131.0394165 175.86781006 131.69724121 176.91799316 132.375 178 C133.40665139 179.68159794 134.43828822 181.36320496 135.46922302 183.04524231 C136.56178414 184.8235944 137.65994231 186.59838721 138.75927734 188.37255859 C142.0784718 193.73566761 145.33913943 199.13428294 148.60650635 204.52905273 C150.0514871 206.91301399 151.5000017 209.2948197 152.94836426 211.67672729 C157.12707078 218.55005433 161.27300438 225.44235376 165.40307617 232.3449707 C169.37231577 238.97113224 173.37846658 245.57461828 177.390625 252.17483521 C180.59606422 257.44848462 183.79815718 262.72416657 187 268 C187.63164063 269.04043457 188.26328125 270.08086914 188.9140625 271.15283203 C190.61271775 273.95405057 192.30716298 276.75776265 194 279.5625 C194.74733398 280.79323242 194.74733398 280.79323242 195.50976562 282.04882812 C196.18555664 283.1712793 196.18555664 283.1712793 196.875 284.31640625 C197.26429688 284.96037354 197.65359375 285.60434082 198.0546875 286.26782227 C199 288 199 288 200 291 C191.49857851 291.20884949 182.99823405 291.36859675 174.49487877 291.46630955 C170.54595508 291.51321686 166.59879017 291.57679045 162.65087891 291.67895508 C158.83817006 291.77699952 155.0271483 291.83060624 151.21327591 291.85389519 C149.76101742 291.87048204 148.30884797 291.90287767 146.85731125 291.95157051 C135.52175173 292.31658567 135.52175173 292.31658567 131.86842346 289.1558075 C130.29358326 286.83622565 129.12739658 284.56309519 128 282 C127.34926514 280.93096436 126.69853027 279.86192871 126.02807617 278.76049805 C125.45549072 277.77090088 124.88290527 276.78130371 124.29296875 275.76171875 C123.63256592 274.62597412 122.97216309 273.49022949 122.29174805 272.32006836 C121.94929047 271.72870087 121.60683289 271.13733337 121.2539978 270.52804565 C115.01451685 259.76004452 108.66353137 249.06478161 102.1875 238.4375 C101.47948092 237.2745023 100.77147301 236.11149781 100.06347656 234.94848633 C97.40765495 230.5883358 94.74970105 226.2294867 92.09179688 221.87060547 C90.36929778 219.04137768 88.65258768 216.20872474 86.9375 213.375 C86.43049561 212.54540771 85.92349121 211.71581543 85.40112305 210.86108398 C84.94777588 210.11028564 84.49442871 209.3594873 84.02734375 208.5859375 C83.63281006 207.9367334 83.23827637 207.2875293 82.83178711 206.61865234 C82 205 82 205 82 203 C77.03611395 207.03938005 72.56092598 211.40790385 68.25 216.125 C67.79069092 216.62741211 67.33138184 217.12982422 66.8581543 217.64746094 C65.55812271 219.08579376 64.27866498 220.54263961 63 222 C62.29937439 222.75125656 61.59874878 223.50251312 60.87689209 224.27653503 C58.59087801 227.59365662 58.48565656 229.44303085 58.45410156 233.44262695 C58.43438293 234.72357742 58.41466431 236.00452789 58.39434814 237.32429504 C58.39268524 238.71229 58.39145424 240.10028554 58.390625 241.48828125 C58.37563641 242.91604991 58.35890782 244.34380128 58.34051514 245.77153015 C58.29690467 249.51812556 58.27685687 253.26448711 58.26177979 257.0112915 C58.23873697 261.51276003 58.18631464 266.01397149 58.13883972 270.5152359 C58.07009935 277.34355757 58.03859202 284.17114168 58 291 C38.86 291 19.72 291 0 291 C0 194.97 0 98.94 0 0 Z " fill="#FFFFFF" transform="translate(1547,64)"/>
<path d="M0 0 C10.41984435 9.07899616 18.71112045 18.80428106 25.45703125 30.8828125 C26.00230469 31.83800781 26.54757812 32.79320312 27.109375 33.77734375 C40.39937984 58.49742908 41.98301542 89.76269158 34.203125 116.4765625 C24.70562251 146.0958358 4.34572119 168.55297537 -23.09277344 182.82666016 C-50.25936793 196.34901843 -84.09878095 197.59142377 -112.79296875 188.2578125 C-141.32479448 178.31604794 -164.51094666 158.22639721 -177.84277344 131.05834961 C-190.36883187 104.12215326 -191.17025908 71.33072051 -181.046875 43.46875 C-168.8418161 14.36681734 -146.70443186 -6.83982691 -117.66015625 -18.89892578 C-78.41734954 -34.33512555 -32.24481192 -26.845911 0 0 Z M-115.54296875 45.8828125 C-126.66411343 61.36468445 -128.65491944 79.6259433 -126.24267578 98.19433594 C-125.45714701 102.27908556 -124.152983 106.05713601 -122.54296875 109.8828125 C-121.94162109 111.31753906 -121.94162109 111.31753906 -121.328125 112.78125 C-114.56634593 126.77519277 -103.33144829 134.49180166 -89.21484375 139.75 C-75.86819376 143.46872309 -60.3334423 141.2679091 -48.35546875 134.7578125 C-35.73874364 126.82917951 -27.9211342 115.47774471 -23.54296875 101.3203125 C-19.64015012 82.64253762 -22.19425473 63.90922566 -32.54296875 47.8828125 C-40.45895105 37.18876848 -51.32674485 29.37838997 -64.54296875 26.8828125 C-84.38386939 24.84750575 -102.49388994 30.05184217 -115.54296875 45.8828125 Z " fill="#FFFFFF" transform="translate(1258.54296875,166.1171875)"/>
<path d="M0 0 C1.53234146 1.32009146 3.05343135 2.65336582 4.5625 4 C5.7690625 4.99386719 5.7690625 4.99386719 7 6.0078125 C22.98598038 19.54593964 34.08742682 37.88178994 39.5625 58 C39.88089844 59.07378906 40.19929688 60.14757812 40.52734375 61.25390625 C47.50947952 89.02157063 42.34372578 119.20554812 28.48046875 143.90234375 C25.19085639 149.21530221 21.47517072 154.13370345 17.5625 159 C16.70011719 160.09441406 16.70011719 160.09441406 15.8203125 161.2109375 C-1.74994894 182.48020135 -29.62628239 194.75303146 -56.61328125 197.6171875 C-90.31356603 200.54392964 -120.47296045 191.03180612 -146.84765625 170.0859375 C-167.36559611 152.77021947 -179.40064151 127.37390463 -182.4375 101 C-184.85120328 65.48789043 -175.56069701 38.02432799 -152.703125 10.9453125 C-115.02649493 -29.64445907 -43.13246394 -33.77924633 0 0 Z M-108.4375 47 C-119.42780409 60.55771119 -123.87003413 76.56747201 -122.4375 94 C-120.56728987 110.71395003 -114.55602356 124.82721806 -101.25 135.8046875 C-88.80495981 144.73844849 -73.21512856 146.86271336 -58.30078125 144.50390625 C-44.50151947 141.01964186 -33.87146401 133.72374481 -26.0625 121.75 C-17.26814441 106.59528218 -14.90108069 88.59353834 -19.125 71.625 C-22.827984 57.86491652 -30.05769688 45.59566675 -42.4375 38 C-51.38467149 32.86895437 -59.54495474 30.61510595 -69.8125 30.6875 C-71.07030273 30.69595947 -71.07030273 30.69595947 -72.35351562 30.70458984 C-86.18718656 30.97599636 -98.93021946 36.80787298 -108.4375 47 Z " fill="#FFFFFF" transform="translate(1487.4375,162)"/>
<path d="M0 0 C16.48870491 13.17780805 25.60393528 31.40293637 28.46434021 52.17320251 C29.15680855 58.57411978 29.0688737 64.97344967 29.05102539 71.40454102 C29.05074283 72.8048655 29.0509026 74.20519013 29.0514679 75.60551453 C29.05175318 79.38173383 29.04590015 83.15792095 29.03889394 86.93413281 C29.03261541 90.88991966 29.03205305 94.84570735 29.03086853 98.80149841 C29.02776843 106.28105805 29.01957294 113.76060295 29.00951904 121.24015611 C28.99831676 129.76015232 28.9928371 138.28014925 28.98782361 146.80015099 C28.97738915 164.31599611 28.9590602 181.83182105 28.9375 199.34765625 C9.4675 199.34765625 -10.0025 199.34765625 -30.0625 199.34765625 C-30.09988281 190.00710938 -30.13726563 180.6665625 -30.17578125 171.04296875 C-30.2060643 165.11847486 -30.23709344 159.19400036 -30.27148438 153.26953125 C-30.32590856 143.87013528 -30.3773242 134.47079314 -30.40893555 125.07128906 C-30.43197517 118.22472719 -30.46543928 111.37830739 -30.51120156 104.53185833 C-30.53505379 100.90975866 -30.55383475 97.287799 -30.56011391 93.66562271 C-30.56733525 89.61297984 -30.59783913 85.56082155 -30.63012695 81.50830078 C-30.62869186 80.31930679 -30.62725677 79.13031281 -30.6257782 77.9052887 C-30.75966245 65.98846092 -33.56302486 56.73893817 -41.375 47.66015625 C-51.30624843 39.11466341 -61.28034863 37.47269152 -74.02099609 38.15234375 C-83.02837071 39.01408731 -90.7135222 43.67250511 -96.78125 50.1953125 C-103.069856 57.94817726 -105.15290177 67.06608562 -105.22071838 76.92855835 C-105.23540161 78.55644791 -105.23540161 78.55644791 -105.25038147 80.21722412 C-105.25613693 81.392547 -105.2618924 82.56786987 -105.26782227 83.77880859 C-105.27772186 85.02814178 -105.28762146 86.27747498 -105.29782104 87.56466675 C-105.32393425 90.97742056 -105.34582682 94.39015191 -105.36582303 97.80294371 C-105.38775351 101.37440167 -105.41510751 104.94581806 -105.44187927 108.51724243 C-105.49171098 115.27438638 -105.53668496 122.03155352 -105.57990164 128.78874266 C-105.63860868 137.92387516 -105.70484416 147.05895289 -105.77065182 156.19403648 C-105.87407747 170.57853946 -105.96746561 184.96308972 -106.0625 199.34765625 C-125.2025 199.34765625 -144.3425 199.34765625 -164.0625 199.34765625 C-164.0625 130.04765625 -164.0625 60.74765625 -164.0625 -10.65234375 C-146.2425 -10.65234375 -128.4225 -10.65234375 -110.0625 -10.65234375 C-109.7325 -3.39234375 -109.4025 3.86765625 -109.0625 11.34765625 C-108.0725 10.00703125 -107.0825 8.66640625 -106.0625 7.28515625 C-95.46822313 -6.17357719 -81.22672466 -12.81295645 -64.52783203 -15.359375 C-41.52757115 -18.0926205 -18.7960562 -13.79759518 0 0 Z " fill="#FFFFFF" transform="translate(831.0625,155.65234375)"/>
<path d="M0 0 C20.79 0 41.58 0 63 0 C70.27487805 19.97159916 77.5445456 39.94467647 84.75 59.94140625 C84.99344524 60.61693731 85.23689049 61.29246838 85.48771286 61.98847008 C87.91404243 68.7214647 90.33920337 75.45487745 92.7614727 82.18933392 C97.426486 95.15716784 102.09615326 108.12013875 107 121 C109.25685345 118.74314655 109.78670281 117.22132808 110.83740234 114.22973633 C111.37206367 112.72149544 111.37206367 112.72149544 111.91752625 111.18278503 C112.49588982 109.52416191 112.49588982 109.52416191 113.0859375 107.83203125 C113.49540115 106.67322952 113.90486481 105.5144278 114.32673645 104.32051086 C115.21545622 101.80410385 116.1021798 99.28709216 116.98568726 96.76885986 C119.09375774 90.76157871 121.21961406 84.76058644 123.34478569 78.75933838 C123.8332321 77.37983136 124.32147727 76.00025307 124.80952644 74.62060547 C130.18535744 59.42493133 135.67127251 44.27018984 141.1875 29.125 C141.62028259 27.93524567 142.05306519 26.74549133 142.4989624 25.51968384 C143.72080896 22.16113772 144.94400574 18.80308783 146.16796875 15.4453125 C146.52848831 14.45525711 146.88900787 13.46520172 147.26045227 12.44514465 C147.76030891 11.07648506 147.76030891 11.07648506 148.27026367 9.68017578 C148.55778 8.89216583 148.84529633 8.10415588 149.14152527 7.29226685 C150.05719747 4.84727347 151.03036102 2.42409745 152 0 C172.79 0 193.58 0 215 0 C214.28287416 3.5856292 213.5975816 6.32819965 212.28857422 9.64624023 C211.93603577 10.54582458 211.58349731 11.44540894 211.22027588 12.37225342 C210.83563171 13.34124573 210.45098755 14.31023804 210.0546875 15.30859375 C209.65328552 16.32939026 209.25188354 17.35018677 208.83831787 18.4019165 C207.52116479 21.7486836 206.19811055 25.09308418 204.875 28.4375 C203.95324609 30.77630389 203.03186271 33.11525383 202.11083984 35.4543457 C199.82301937 41.26182627 197.53053787 47.06745187 195.23608398 52.87231445 C193.52548775 57.20066689 191.81737623 61.52999807 190.109375 65.859375 C188.36288178 70.28549639 186.61576802 74.71137031 184.86669922 79.13647461 C179.70656582 92.19373524 174.57270343 105.26127134 169.44119263 118.32980347 C155.09332521 154.86863406 155.09332521 154.86863406 149.60327148 168.80029297 C149.01194266 170.30139483 148.42108817 171.80268368 147.83081055 173.30419922 C143.00207635 185.58538942 137.99749755 197.78389489 133 210 C116.17 210 99.34 210 82 210 C78.69651653 202.07163968 75.4219911 194.1394144 72.2265625 186.16796875 C71.78633759 185.07080032 71.34611267 183.9736319 70.89254761 182.84321594 C69.46862307 179.29187308 68.04653933 175.73979825 66.625 172.1875 C66.38024933 171.57621246 66.13549866 170.96492493 65.8833313 170.33511353 C59.34948794 154.01583653 52.89666121 137.66989837 46.64004517 121.24203491 C40.40480189 104.88549346 33.88826215 88.64396358 27.3671875 72.3996582 C20.54142541 55.39469865 13.80691374 38.36246596 7.265625 21.24609375 C6.31655623 18.81190812 5.34864957 16.39043873 4.359375 13.97265625 C4.0816626 13.29098389 3.8039502 12.60931152 3.51782227 11.90698242 C2.97601004 10.58104795 2.42981887 9.25689196 1.87866211 7.93481445 C0.72634568 5.11184775 0 3.08317004 0 0 Z " fill="#FFFFFF" transform="translate(860,145)"/>
<path d="M0 0 C19.14 0 38.28 0 58 0 C58 69.3 58 138.6 58 210 C38.86 210 19.72 210 0 210 C0 140.7 0 71.4 0 0 Z " fill="#FFFFFF" transform="translate(584,145)"/>
<path d="M0 0 C19.14 0 38.28 0 58 0 C58 19.47 58 38.94 58 59 C38.86 59 19.72 59 0 59 C0 39.53 0 20.06 0 0 Z " fill="#FFFFFF" transform="translate(584,68)"/>
<path d="M0 0 C9 0 9 0 12.06640625 3.0625 C12.92993385 4.35449549 13.76164802 5.66824614 14.5625 7 C15.21702148 8.00160156 15.21702148 8.00160156 15.88476562 9.0234375 C16.95134215 10.66432446 17.97966182 12.32996841 19 14 C20.46001748 12.23055495 21.91795593 10.45939429 23.375 8.6875 C24.18710938 7.70136719 24.99921875 6.71523438 25.8359375 5.69921875 C28.05604957 3.01091621 28.05604957 3.01091621 30 0 C32.64 0 35.28 0 38 0 C38 11.88 38 23.76 38 36 C35.36 36 32.72 36 30 36 C29.505 26.1 29.505 26.1 29 16 C26.36 19.63 23.72 23.26 21 27 C14.58446347 25.39611587 12.67976382 20.33565754 9 15 C8.67 21.93 8.34 28.86 8 36 C5.36 36 2.72 36 0 36 C0 24.12 0 12.24 0 0 Z " fill="#FFFFFF" transform="translate(1782,28)"/>
<path d="M0 0 C8.58 0 17.16 0 26 0 C26 2.31 26 4.62 26 7 C23.03 7 20.06 7 17 7 C17 16.57 17 26.14 17 36 C14.36 36 11.72 36 9 36 C9 26.43 9 16.86 9 7 C6.03 7 3.06 7 0 7 C0 4.69 0 2.38 0 0 Z " fill="#FFFFFF" transform="translate(1755,28)"/>
</svg>
